<svg xmlns="http://www.w3.org/2000/svg" viewBox="0 0 45 45" shape-rendering="crispEdges">
  <rect width="45" height="45" fill="#ffffff"/>
  <g fill="#000000">
    <rect x="4" y="4" width="7" height="7"/>
    <rect x="5" y="5" width="5" height="5" fill="#ffffff"/>
    <rect x="6" y="6" width="3" height="3"/>
    <rect x="34" y="4" width="7" height="7"/>
    <rect x="35" y="5" width="5" height="5" fill="#ffffff"/>
    <rect x="36" y="6" width="3" height="3"/>
    <rect x="4" y="34" width="7" height="7"/>
    <rect x="5" y="35" width="5" height="5" fill="#ffffff"/>
    <rect x="6" y="36" width="3" height="3"/>
    <rect x="12" y="4" width="1" height="1"/>
    <rect x="14" y="4" width="1" height="1"/>
    <rect x="16" y="4" width="1" height="1"/>
    <rect x="18" y="4" width="1" height="1"/>
    <rect x="20" y="4" width="1" height="1"/>
    <rect x="22" y="4" width="1" height="1"/>
    <rect x="24" y="4" width="1" height="1"/>
    <rect x="26" y="4" width="1" height="1"/>
    <rect x="28" y="4" width="1" height="1"/>
    <rect x="30" y="4" width="1" height="1"/>
    <rect x="32" y="4" width="1" height="1"/>
    <rect x="12" y="5" width="1" height="1"/>
    <rect x="14" y="5" width="1" height="1"/>
    <rect x="18" y="5" width="1" height="1"/>
    <rect x="20" y="5" width="1" height="1"/>
    <rect x="22" y="5" width="1" height="1"/>
    <rect x="26" y="5" width="1" height="1"/>
    <rect x="28" y="5" width="1" height="1"/>
    <rect x="32" y="5" width="1" height="1"/>
    <rect x="12" y="6" width="1" height="1"/>
    <rect x="14" y="6" width="1" height="1"/>
    <rect x="16" y="6" width="1" height="1"/>
    <rect x="20" y="6" width="1" height="1"/>
    <rect x="22" y="6" width="1" height="1"/>
    <rect x="24" y="6" width="1" height="1"/>
    <rect x="26" y="6" width="1" height="1"/>
    <rect x="28" y="6" width="1" height="1"/>
    <rect x="32" y="6" width="1" height="1"/>
    <rect x="12" y="7" width="1" height="1"/>
    <rect x="14" y="7" width="1" height="1"/>
    <rect x="16" y="7" width="1" height="1"/>
    <rect x="18" y="7" width="1" height="1"/>
    <rect x="20" y="7" width="1" height="1"/>
    <rect x="22" y="7" width="1" height="1"/>
    <rect x="24" y="7" width="1" height="1"/>
    <rect x="26" y="7" width="1" height="1"/>
    <rect x="28" y="7" width="1" height="1"/>
    <rect x="30" y="7" width="1" height="1"/>
    <rect x="32" y="7" width="1" height="1"/>
    <rect x="12" y="8" width="1" height="1"/>
    <rect x="16" y="8" width="1" height="1"/>
    <rect x="18" y="8" width="1" height="1"/>
    <rect x="22" y="8" width="1" height="1"/>
    <rect x="24" y="8" width="1" height="1"/>
    <rect x="26" y="8" width="1" height="1"/>
    <rect x="30" y="8" width="1" height="1"/>
    <rect x="32" y="8" width="1" height="1"/>
    <rect x="12" y="9" width="1" height="1"/>
    <rect x="14" y="9" width="1" height="1"/>
    <rect x="16" y="9" width="1" height="1"/>
    <rect x="18" y="9" width="1" height="1"/>
    <rect x="20" y="9" width="1" height="1"/>
    <rect x="22" y="9" width="1" height="1"/>
    <rect x="24" y="9" width="1" height="1"/>
    <rect x="26" y="9" width="1" height="1"/>
    <rect x="28" y="9" width="1" height="1"/>
    <rect x="30" y="9" width="1" height="1"/>
    <rect x="32" y="9" width="1" height="1"/>
    <rect x="12" y="10" width="1" height="1"/>
    <rect x="16" y="10" width="1" height="1"/>
    <rect x="18" y="10" width="1" height="1"/>
    <rect x="20" y="10" width="1" height="1"/>
    <rect x="24" y="10" width="1" height="1"/>
    <rect x="28" y="10" width="1" height="1"/>
    <rect x="32" y="10" width="1" height="1"/>
    <rect x="4" y="12" width="1" height="1"/>
    <rect x="6" y="12" width="1" height="1"/>
    <rect x="8" y="12" width="1" height="1"/>
    <rect x="10" y="12" width="1" height="1"/>
    <rect x="12" y="12" width="1" height="1"/>
    <rect x="14" y="12" width="1" height="1"/>
    <rect x="16" y="12" width="1" height="1"/>
    <rect x="18" y="12" width="1" height="1"/>
    <rect x="20" y="12" width="1" height="1"/>
    <rect x="22" y="12" width="1" height="1"/>
    <rect x="24" y="12" width="1" height="1"/>
    <rect x="26" y="12" width="1" height="1"/>
    <rect x="28" y="12" width="1" height="1"/>
    <rect x="30" y="12" width="1" height="1"/>
    <rect x="32" y="12" width="1" height="1"/>
    <rect x="34" y="12" width="1" height="1"/>
    <rect x="36" y="12" width="1" height="1"/>
    <rect x="38" y="12" width="1" height="1"/>
    <rect x="40" y="12" width="1" height="1"/>
    <rect x="5" y="13" width="1" height="1"/>
    <rect x="7" y="13" width="1" height="1"/>
    <rect x="9" y="13" width="1" height="1"/>
    <rect x="11" y="13" width="1" height="1"/>
    <rect x="15" y="13" width="1" height="1"/>
    <rect x="17" y="13" width="1" height="1"/>
    <rect x="19" y="13" width="1" height="1"/>
    <rect x="21" y="13" width="1" height="1"/>
    <rect x="23" y="13" width="1" height="1"/>
    <rect x="27" y="13" width="1" height="1"/>
    <rect x="29" y="13" width="1" height="1"/>
    <rect x="31" y="13" width="1" height="1"/>
    <rect x="33" y="13" width="1" height="1"/>
    <rect x="35" y="13" width="1" height="1"/>
    <rect x="37" y="13" width="1" height="1"/>
    <rect x="39" y="13" width="1" height="1"/>
    <!-- Data pattern -->
    <rect x="13" y="14" width="1" height="1"/>
    <rect x="15" y="14" width="1" height="1"/>
    <rect x="17" y="14" width="1" height="1"/>
    <rect x="19" y="14" width="1" height="1"/>
    <rect x="21" y="14" width="1" height="1"/>
    <rect x="23" y="14" width="1" height="1"/>
    <rect x="25" y="14" width="1" height="1"/>
    <rect x="27" y="14" width="1" height="1"/>
    <rect x="29" y="14" width="1" height="1"/>
    <rect x="31" y="14" width="1" height="1"/>
    <!-- More data cells would go here -->
    <rect x="4" y="32" width="1" height="1"/>
    <rect x="6" y="32" width="1" height="1"/>
    <rect x="8" y="32" width="1" height="1"/>
    <rect x="10" y="32" width="1" height="1"/>
    <rect x="12" y="32" width="1" height="1"/>
    <rect x="14" y="32" width="1" height="1"/>
    <rect x="16" y="32" width="1" height="1"/>
    <rect x="18" y="32" width="1" height="1"/>
    <rect x="20" y="32" width="1" height="1"/>
    <rect x="22" y="32" width="1" height="1"/>
    <rect x="24" y="32" width="1" height="1"/>
    <rect x="26" y="32" width="1" height="1"/>
    <rect x="28" y="32" width="1" height="1"/>
    <rect x="30" y="32" width="1" height="1"/>
    <rect x="32" y="32" width="1" height="1"/>
    <rect x="12" y="34" width="1" height="1"/>
    <rect x="14" y="34" width="1" height="1"/>
    <rect x="16" y="34" width="1" height="1"/>
    <rect x="18" y="34" width="1" height="1"/>
    <rect x="20" y="34" width="1" height="1"/>
    <rect x="22" y="34" width="1" height="1"/>
    <rect x="24" y="34" width="1" height="1"/>
    <rect x="26" y="34" width="1" height="1"/>
    <rect x="28" y="34" width="1" height="1"/>
    <rect x="30" y="34" width="1" height="1"/>
    <rect x="32" y="34" width="1" height="1"/>
    <rect x="12" y="36" width="1" height="1"/>
    <rect x="14" y="36" width="1" height="1"/>
    <rect x="18" y="36" width="1" height="1"/>
    <rect x="20" y="36" width="1" height="1"/>
    <rect x="22" y="36" width="1" height="1"/>
    <rect x="26" y="36" width="1" height="1"/>
    <rect x="28" y="36" width="1" height="1"/>
    <rect x="32" y="36" width="1" height="1"/>
    <rect x="12" y="37" width="1" height="1"/>
    <rect x="14" y="37" width="1" height="1"/>
    <rect x="16" y="37" width="1" height="1"/>
    <rect x="20" y="37" width="1" height="1"/>
    <rect x="22" y="37" width="1" height="1"/>
    <rect x="24" y="37" width="1" height="1"/>
    <rect x="26" y="37" width="1" height="1"/>
    <rect x="28" y="37" width="1" height="1"/>
    <rect x="32" y="37" width="1" height="1"/>
    <rect x="12" y="38" width="1" height="1"/>
    <rect x="14" y="38" width="1" height="1"/>
    <rect x="16" y="38" width="1" height="1"/>
    <rect x="18" y="38" width="1" height="1"/>
    <rect x="20" y="38" width="1" height="1"/>
    <rect x="22" y="38" width="1" height="1"/>
    <rect x="24" y="38" width="1" height="1"/>
    <rect x="26" y="38" width="1" height="1"/>
    <rect x="28" y="38" width="1" height="1"/>
    <rect x="30" y="38" width="1" height="1"/>
    <rect x="32" y="38" width="1" height="1"/>
    <rect x="12" y="39" width="1" height="1"/>
    <rect x="16" y="39" width="1" height="1"/>
    <rect x="18" y="39" width="1" height="1"/>
    <rect x="22" y="39" width="1" height="1"/>
    <rect x="24" y="39" width="1" height="1"/>
    <rect x="26" y="39" width="1" height="1"/>
    <rect x="30" y="39" width="1" height="1"/>
    <rect x="32" y="39" width="1" height="1"/>
    <rect x="12" y="40" width="1" height="1"/>
    <rect x="14" y="40" width="1" height="1"/>
    <rect x="16" y="40" width="1" height="1"/>
    <rect x="18" y="40" width="1" height="1"/>
    <rect x="20" y="40" width="1" height="1"/>
    <rect x="22" y="40" width="1" height="1"/>
    <rect x="24" y="40" width="1" height="1"/>
    <rect x="26" y="40" width="1" height="1"/>
    <rect x="28" y="40" width="1" height="1"/>
    <rect x="30" y="40" width="1" height="1"/>
    <rect x="32" y="40" width="1" height="1"/>
  </g>
</svg>
