<svg xmlns="http://www.w3.org/2000/svg" viewBox="0 0 41 41" shape-rendering="crispEdges">
  <path fill="#ffffff" d="M0,0 h41v41H0z"/>
  <path fill="#000000" d="M4,4h7v7h-7zM12,4h1v1h1v1h-1v1h-2v-1h1zM14,5h1v2h1v-1h2v1h-1v1h1v1h-3v-1h1v-1h-1v-1h-1zM18,5h1v1h-1zM20,5h1v1h-2v1h1v1h-1v1h-1v-2h1v-1h1zM23,5h1v2h-2v-1h1zM25,5h1v1h-1zM30,4h7v7h-7zM5,5v5h5v-5zM13,6h1v1h-1zM20,6h1v1h-1zM24,6h1v1h-1zM31,5v5h5v-5zM6,6h3v3h-3zM15,7h1v1h-1zM17,7h1v2h-1zM24,7h1v1h-1zM32,6h3v3h-3zM12,8h1v1h-1zM22,8h1v2h-1zM25,8h2v1h-2zM12,9h1v2h-1zM18,9h1v1h-1zM20,9h1v1h-1zM4,12h1v1h-1zM6,12h1v1h1v1h-1v1h-1v1h-1v-2h1zM8,12h1v2h1v-1h2v1h-1v2h-1v-1h-2zM13,12h2v1h1v1h-2v1h-1v1h2v1h-4v-2h1v-1h-1v-1h2zM16,12h1v1h-1zM18,12h3v1h-1v1h-1v-1h-1zM22,12h1v1h-1zM24,12h2v1h-1v1h-1zM27,12h2v1h1v1h-1v1h-1v-2h-1zM30,12h3v1h-3zM34,12h3v1h-3zM5,13h1v1h-1zM17,13h1v1h-1zM23,13h1v1h-1zM33,13h1v2h-2v-1h1zM35,14h1v1h-1zM4,15h1v2h-1zM10,15h1v1h-1zM14,15h1v1h-1zM17,15h2v1h1v1h-2v1h-1v1h-1v-3h1zM21,15h1v1h-1zM25,15h2v1h-2zM29,15h1v1h-1zM35,15h1v1h-1zM5,16h2v1h-2zM11,16h1v1h-1zM22,16h2v1h-2zM27,16h1v3h-1zM30,16h1v1h1v1h-1v1h-1v1h-1v-3h1zM34,16h1v1h-1zM36,16h1v1h-1zM8,17h2v1h-2zM13,17h1v1h1v1h-1v1h-2v-2h1zM23,17h1v1h-1zM25,17h1v1h-1zM32,17h1v1h-1zM10,18h1v1h-1zM15,18h1v1h-1zM20,18h2v2h-1v-1h-1zM24,18h1v2h-1zM28,18h1v1h-1zM34,18h2v1h-2zM4,19h3v1h-3zM8,19h1v1h-1zM11,19h2v1h-2zM16,19h1v1h-1zM25,19h1v2h-1zM32,19h1v1h-1zM5,20h1v1h-1zM7,20h2v1h-2zM10,20h1v1h-1zM12,20h1v1h-1zM14,20h1v1h-1zM17,20h2v1h-2zM22,20h1v1h-1zM28,20h2v2h-1v-1h-1zM31,20h1v1h-1zM33,20h3v1h-3zM4,21h1v1h-1zM6,21h1v1h-1zM9,21h2v1h-2zM13,21h3v1h1v1h-3v-1h-1zM20,21h1v1h-1zM22,21h2v1h-2zM26,21h1v1h-1zM31,21h1v2h-1zM33,21h1v1h-1zM35,21h1v2h-1zM10,22h1v1h-1zM21,22h1v1h-1zM23,22h1v1h-1zM32,22h1v1h-1zM5,23h1v1h-1zM7,23h1v1h-1zM9,23h3v2h-1v-1h-2zM17,23h2v1h1v1h-3zM21,23h1v2h-1zM25,23h1v1h-1zM27,23h2v1h-2zM33,23h2v1h-2zM36,23h1v1h-1zM4,24h1v1h-1zM6,24h1v1h-1zM13,24h3v1h-3zM22,24h1v1h-1zM24,24h1v1h-1zM30,24h1v1h-1zM5,25h1v1h-1zM7,25h2v1h-2zM13,25h1v1h-1zM15,25h1v1h-1zM17,25h1v1h-1zM20,25h1v1h-1zM22,25h1v1h-1zM24,25h2v2h-1v-1h-1zM27,25h1v1h-1zM31,25h1v1h-1zM33,25h2v1h-1v1h-1zM36,25h1v1h-1zM4,26h1v1h-1zM6,26h2v1h-2zM9,26h1v1h-1zM12,26h1v3h-2v-1h1zM14,26h1v1h1v1h-3v-1h1zM18,26h1v1h-1zM20,26h1v2h-1zM26,26h1v1h-1zM28,26h1v1h-1zM30,26h2v1h-2zM35,26h2v1h-2zM4,27h3v1h-1v1h-3v-1h1zM9,27h1v1h-1zM16,27h1v1h-1zM22,27h1v2h-1zM27,27h1v1h-1zM31,27h1v2h-2v-1h1zM33,27h1v1h-1zM35,27h1v1h-1zM8,28h3v1h-3zM14,28h2v1h-2zM17,28h2v1h-2zM25,28h1v1h-1zM27,28h1v1h-1zM33,28h1v1h-1zM35,28h2v1h-2zM5,29h2v1h-2zM9,29h1v1h-1zM13,29h2v1h-2zM16,29h1v1h-1zM18,29h1v1h-1zM21,29h1v1h-1zM24,29h2v1h-2zM28,29h2v2h-1v-1h-1zM32,29h1v1h-1zM4,30h7v7h-7zM13,30h1v1h-1zM15,30h1v2h-1zM17,30h2v1h-2zM20,30h1v2h-1zM23,30h1v1h-1zM25,30h1v1h-1zM27,30h1v1h-1zM30,30h1v1h-1zM32,30h2v1h-2zM35,30h1v2h-1zM5,31v5h5v-5zM12,31h1v1h-1zM22,31h1v1h-1zM26,31h1v2h-1zM31,31h1v1h-1zM33,31h1v1h1v1h-1v1h-1v1h-1v-3h1zM36,31h1v1h-1zM6,32h3v3h-3zM14,32h1v1h-1zM16,32h2v1h-2zM19,32h1v1h-1zM21,32h1v2h1v-1h2v1h-1v1h-1v1h-1v-1h-1zM24,32h1v1h-1zM28,32h1v1h-1zM30,32h2v1h-2zM12,33h1v3h-1zM16,33h1v1h-1zM18,33h1v2h-2v-1h1zM27,33h1v1h-1zM35,33h2v1h-2zM13,34h1v1h-1zM15,34h1v1h-1zM25,34h1v2h-1zM28,34h1v1h-1zM30,34h1v1h-1zM36,34h1v1h-1zM14,35h1v1h-1zM16,35h1v1h-1zM19,35h1v1h-1zM27,35h3v1h-3zM32,35h1v1h-1zM34,35h1v1h-1zM13,36h3v1h-3zM17,36h1v1h-1zM20,36h1v1h-1zM26,36h1v1h-1zM28,36h1v1h-1zM31,36h1v1h-1zM35,36h2v1h-2z"/>
</svg>
